<svg aria-label="五线谱" role="img" class="staff-svg-tool staff-score" viewBox="0 0 770 260"><g class="staff-zones"><rect data-position="-5" data-staff="0" class="staff-zone" height="5" width="706" y="110.5" x="54" /><rect data-position="-4" data-staff="0" class="staff-zone" height="5" width="706" y="105.5" x="54" /><rect data-position="-3" data-staff="0" class="staff-zone" height="5" width="706" y="100.5" x="54" /><rect data-position="-2" data-staff="0" class="staff-zone" height="5" width="706" y="95.5" x="54" /><rect data-position="-1" data-staff="0" class="staff-zone" height="5" width="706" y="90.5" x="54" /><rect data-position="0" data-staff="0" class="staff-zone" height="5" width="706" y="85.5" x="54" /><rect data-position="1" data-staff="0" class="staff-zone" height="5" width="706" y="80.5" x="54" /><rect data-position="2" data-staff="0" class="staff-zone" height="5" width="706" y="75.5" x="54" /><rect data-position="3" data-staff="0" class="staff-zone" height="5" width="706" y="70.5" x="54" /><rect data-position="4" data-staff="0" class="staff-zone" height="5" width="706" y="65.5" x="54" /><rect data-position="5" data-staff="0" class="staff-zone" height="5" width="706" y="60.5" x="54" /><rect data-position="6" data-staff="0" class="staff-zone" height="5" width="706" y="55.5" x="54" /><rect data-position="7" data-staff="0" class="staff-zone" height="5" width="706" y="50.5" x="54" /><rect data-position="8" data-staff="0" class="staff-zone" height="5" width="706" y="45.5" x="54" /><rect data-position="9" data-staff="0" class="staff-zone" height="5" width="706" y="40.5" x="54" /><rect data-position="10" data-staff="0" class="staff-zone" height="5" width="706" y="35.5" x="54" /><rect data-position="11" data-staff="0" class="staff-zone" height="5" width="706" y="30.5" x="54" /><rect data-position="12" data-staff="0" class="staff-zone" height="5" width="706" y="25.5" x="54" /><rect data-position="13" data-staff="0" class="staff-zone" height="5" width="706" y="20.5" x="54" /><rect data-position="14" data-staff="0" class="staff-zone" height="5" width="706" y="15.5" x="54" /><rect data-position="-6" data-staff="1" class="staff-zone" height="5" width="706" y="229.5" x="54" /><rect data-position="-5" data-staff="1" class="staff-zone" height="5" width="706" y="224.5" x="54" /><rect data-position="-4" data-staff="1" class="staff-zone" height="5" width="706" y="219.5" x="54" /><rect data-position="-3" data-staff="1" class="staff-zone" height="5" width="706" y="214.5" x="54" /><rect data-position="-2" data-staff="1" class="staff-zone" height="5" width="706" y="209.5" x="54" /><rect data-position="-1" data-staff="1" class="staff-zone" height="5" width="706" y="204.5" x="54" /><rect data-position="0" data-staff="1" class="staff-zone" height="5" width="706" y="199.5" x="54" /><rect data-position="1" data-staff="1" class="staff-zone" height="5" width="706" y="194.5" x="54" /><rect data-position="2" data-staff="1" class="staff-zone" height="5" width="706" y="189.5" x="54" /><rect data-position="3" data-staff="1" class="staff-zone" height="5" width="706" y="184.5" x="54" /><rect data-position="4" data-staff="1" class="staff-zone" height="5" width="706" y="179.5" x="54" /><rect data-position="5" data-staff="1" class="staff-zone" height="5" width="706" y="174.5" x="54" /><rect data-position="6" data-staff="1" class="staff-zone" height="5" width="706" y="169.5" x="54" /><rect data-position="7" data-staff="1" class="staff-zone" height="5" width="706" y="164.5" x="54" /><rect data-position="8" data-staff="1" class="staff-zone" height="5" width="706" y="159.5" x="54" /><rect data-position="9" data-staff="1" class="staff-zone" height="5" width="706" y="154.5" x="54" /><rect data-position="10" data-staff="1" class="staff-zone" height="5" width="706" y="149.5" x="54" /><rect data-position="11" data-staff="1" class="staff-zone" height="5" width="706" y="144.5" x="54" /><rect data-position="12" data-staff="1" class="staff-zone" height="5" width="706" y="139.5" x="54" /><rect data-position="13" data-staff="1" class="staff-zone" height="5" width="706" y="134.5" x="54" /></g><line class="sd-line" y2="88" y1="88" x2="760" x1="24" /><line class="sd-line" y2="78" y1="78" x2="760" x1="24" /><line class="sd-line" y2="68" y1="68" x2="760" x1="24" /><line class="sd-line" y2="58" y1="58" x2="760" x1="24" /><line class="sd-line" y2="48" y1="48" x2="760" x1="24" /><g transform="translate(30 48)" class="sd-clef sd-gclef"><path d="M 13 30 C 8.5 30.5 8.5 24.5 13 23.5 C 18.5 22.5 21 29.5 17.5 33.5 C 13.5 38 4.5 37 3.5 29.5 C 2.5 21 11 15.5 15.5 7.5 C 18.5 1.5 18.5 -9 14.5 -11.5 C 10.5 -13.5 8.5 -4 10 4.5 L 14.5 48 C 15 54 9.5 56 7.5 52.5" class="sd-clef-stroke" /><circle r="3.1" cy="50.6" cx="8.6" /></g><g class="sd-meter"><text text-anchor="middle" y="67" x="76">4</text><text text-anchor="middle" y="87" x="76">4</text></g><line class="sd-line" y2="202" y1="202" x2="760" x1="24" /><line class="sd-line" y2="192" y1="192" x2="760" x1="24" /><line class="sd-line" y2="182" y1="182" x2="760" x1="24" /><line class="sd-line" y2="172" y1="172" x2="760" x1="24" /><line class="sd-line" y2="162" y1="162" x2="760" x1="24" /><g transform="translate(30 162)" class="sd-clef sd-fclef"><path d="M 4.5 10 C 4 3.5 9.5 0.5 13.5 1 C 21.5 2 23 12.5 17 20 C 13 25 7.5 29 2 32.5" class="sd-clef-stroke" /><circle r="3.4" cy="10" cx="5.5" /><circle r="1.8" cy="5" cx="25" /><circle r="1.8" cy="15" cx="25" /></g><g class="sd-meter"><text text-anchor="middle" y="181" x="76">4</text><text text-anchor="middle" y="201" x="76">4</text></g><g class="sd-brace"><line class="sd-line sd-system" y2="202" y1="48" x2="13" x1="13" /><path d="M 10 48 C 0 58 12 113 3 125 C 12 137 0 192 10 202 C 5 190 16 135 5 125 C 16 115 5 60 10 48 Z" /></g><line class="sd-line sd-system" y2="202" y1="48" x2="24" x1="24" /><g data-source="0" data-voice="0" class="sd-note sd-event"><line class="sd-ledger" y2="98" y1="98" x2="136.32" x1="114.32" /><ellipse class="sd-head hollow" transform="rotate(-18 125.32 98)" ry="4.6" rx="7.4" cy="98" cx="125.32" /></g><g class="sd-rest is-ghost-rest"><rect height="5" width="12" y="172" x="121" /></g><line class="sd-line sd-system is-open" y2="202" y1="48" x2="158" x1="158" /><line class="sd-line sd-system" y2="202" y1="48" x2="755" x1="755" /><rect class="sd-final" height="154" width="3.4" y="48" x="758" /></svg>